# xmcd
#
# Track frame offsets:
#	150
#	15920
#	35053
#	55084
#	68428
#	83862
#	102858
#	124784
#	140247
#	154496
#	166499
#	179403
#	193803
#	214300
#	235243
#
# Disc length: 3361 seconds
#
# Revision: 0
# Processed by: cddbd v1.5.1PL0 Copyright (c) Steve Scherf et al.
# Submitted via: EasyCDDAExtractor 8.1.4.1
#
DISCID=d50d1f0f
DTITLE=Various Artist - Os Leões Da Musica Sertaneja
DYEAR=2005
DGENRE=Sertanejo
TTITLE0=Autor Desconhecido - Tire O Pe Do Freio
TTITLE1=Autor Desconhecido - Te Amo, Te Amo, Te Amo
TTITLE2=Autor Desconhecido - Cabelos Brancos
TTITLE3=Dalvan E Donizetti - Galopeira
TTITLE4=Dalvan E Donizetti - Só Vai Dar Eu E Voce
TTITLE5=Dalvan E Donizetti - Sem Amor Não Da
TTITLE6=Dalvan E Donizetti - No Mundo Da Mulher
TTITLE7=Dalvan E Donizetti - Como Todos Menos Comigo (Komm Doch Noch Mal)
TTITLE8=Dalvan E Donizetti - Meu Diploma Vem Da Roça
TTITLE9=Dalvan E Donizetti - O Palco Caiu
TTITLE10=Dalvan E Donizetti - Na Toca Do Leão
TTITLE11=Dalvan E Donizetti - Liguei Pra Dizer Que Te Amo
TTITLE12=Dalvan E Donizetti - Sonhei Com Voce
TTITLE13=Dalvan E Donizetti - Aguenta Coração
TTITLE14=Dalvan E Donizetti - Como Eu Chorei
EXTD=
EXTT0=
EXTT1=
EXTT2=
EXTT3=
EXTT4=
EXTT5=
EXTT6=
EXTT7=
EXTT8=
EXTT9=
EXTT10=
EXTT11=
EXTT12=
EXTT13=
EXTT14=
PLAYORDER=
